<mxfile host="app.diagrams.net" modified="2023-08-23T23:49:28.235Z" agent="Mozilla/5.0 (Windows NT 10.0; Win64; x64) AppleWebKit/537.36 (KHTML, like Gecko) Chrome/114.0.0.0 Safari/537.36 OPR/100.0.0.0 (Edition std-1)" version="21.6.9" etag="I_-U0CLKJEB_lHf-3TrV" type="github">
  <diagram name="PÃ¡gina-1" id="gp8refOzFvBV2CG5FvDO">
    <mxGraphModel>
      <root>
        <mxCell id="0" />
        <mxCell id="1" parent="0" />
      </root>
    </mxGraphModel>
  </diagram>
</mxfile>
